#!OML:ASF G:\ViconDB\ViconDB\414\test\team2\shane.ASF
:FULLY-SPECIFIED
:DEGREES
198
root 6.49163 2.05452 1.56318 234.445 -57.5305 27.8919
lowerback 12.9915 -0.442385 3.49851
upperback 8.33697 -0.551118 3.34185
thorax 1.49497 -0.37068 1.57551
lowerneck -10.619 -6.52624 -7.5089
upperneck 35.5157 -15.5549 13.9888
head 16.3678 -6.55299 4.49117
rclavicle 5.725e-014 -2.06736e-013
rhumerus 15.5385 3.76009 -70.935
rradius 74.7276
rwrist 28.0626
rhand -50.0106 -43.3301
rfingers 7.12502
rthumb -22.5992 -72.0272
lclavicle 5.725e-014 -2.06736e-013
lhumerus 33.6713 -16.3733 37.0637
lradius 62.6588
lwrist -20.406
lhand -55.026 -346.377
lfingers 7.12502
lthumb -27.405 -318.35
rfemur -23.5683 -11.4953 -12.7876
rtibia 74.0673
rfoot -13.6624 1.6378
rtoes -6.70904
lfemur -24.8836 15.2453 -7.68303
ltibia 98.9852
lfoot 26.7133 -56.8475
ltoes 1.75451
199
root 6.57324 2.02177 1.72146 237.687 -58.5239 23.4438
lowerback 12.4973 -0.0742792 4.14007
upperback 8.71983 -0.00803232 2.94285
thorax 2.16933 -0.0356225 0.738188
lowerneck -11.4594 -6.22953 -6.97388
upperneck 35.6174 -15.0558 14.0528
head 16.5034 -6.18905 4.50744
rclavicle -4.6118e-014 0
rhumerus 16.074 3.3762 -73.8252
rradius 75.5344
rwrist 29.3945
rhand -49.1888 -41.365
rfingers 7.12502
rthumb -21.8103 -70.156
lclavicle -4.6118e-014 0
lhumerus 33.2381 -16.103 40.908
lradius 62.9951
lwrist -21.1032
lhand -55.1482 -345.749
lfingers 7.12502
lthumb -27.5219 -317.74
rfemur -23.0805 -9.91246 -13.2669
rtibia 75.6274
rfoot -12.9 2.30454
rtoes -9.52951
lfemur -25.2205 16.3462 -7.4455
ltibia 99.0838
lfoot 21.6392 -55.4897
ltoes 1.69531
200
root 6.64815 1.97233 1.86878 241.247 -59.5921 18.7175
lowerback 12.2333 0.263916 4.79814
upperback 9.1042 0.498678 2.69933
thorax 2.74549 0.280305 0.071247
lowerneck -12.3623 -5.86982 -6.9594
upperneck 35.464 -14.3756 14.4577
head 16.5844 -5.77467 4.80112
rclavicle -2.3059e-014 7.41467e-014
rhumerus 17.1041 3.5341 -76.3131
rradius 76.1034
rwrist 29.3575
rhand -49.5978 -39.0925
rfingers 7.12502
rthumb -22.2031 -67.8373
lclavicle -2.3059e-014 7.41467e-014
lhumerus 32.7703 -15.658 44.6296
lradius 63.8367
lwrist -21.2818
lhand -55.2738 -346.327
lfingers 7.12502
lthumb -27.642 -318.338
rfemur -22.6511 -8.76126 -13.5415
rtibia 77.3024
rfoot -11.9503 2.85644
rtoes -7.81065
lfemur -25.8815 17.5063 -7.27344
ltibia 99.4358
lfoot 16.2512 -54.489
ltoes 0.431216
201
root 6.64815 1.97233 1.86878 241.247 -59.5921 18.7175
lowerback 12.2333 0.263916 4.79814
upperback 9.1042 0.498678 2.69933
thorax 2.74549 0.280305 0.071247
lowerneck -12.3623 -5.86982 -6.9594
upperneck 35.464 -14.3756 14.4577
head 16.5844 -5.77467 4.80112
rclavicle -2.3059e-014 7.41467e-014
rhumerus 17.1041 3.5341 -76.3131
rradius 76.1034
rwrist 29.3575
rhand -49.5978 -39.0925
rfingers 7.12502
rthumb -22.2031 -67.8373
lclavicle -2.3059e-014 7.41467e-014
lhumerus 32.7703 -15.658 44.6296
lradius 63.8367
lwrist -21.2818
lhand -55.2738 -346.327
lfingers 7.12502
lthumb -27.642 -318.338
rfemur -22.6511 -8.76126 -13.5415
rtibia 77.3024
rfoot -11.9503 2.85644
rtoes -7.81065
lfemur -25.8815 17.5063 -7.27344
ltibia 99.4358
lfoot 16.2512 -54.489
ltoes 0.431216
202
root 6.64815 1.97233 1.86878 241.247 -59.5921 18.7175
lowerback 12.2333 0.263916 4.79814
upperback 9.1042 0.498678 2.69933
thorax 2.74549 0.280305 0.071247
lowerneck -12.3623 -5.86982 -6.9594
upperneck 35.464 -14.3756 14.4577
head 16.5844 -5.77467 4.80112
rclavicle -2.3059e-014 7.41467e-014
rhumerus 17.1041 3.5341 -76.3131
rradius 76.1034
rwrist 29.3575
rhand -49.5978 -39.0925
rfingers 7.12502
rthumb -22.2031 -67.8373
lclavicle -2.3059e-014 7.41467e-014
lhumerus 32.7703 -15.658 44.6296
lradius 63.8367
lwrist -21.2818
lhand -55.2738 -346.327
lfingers 7.12502
lthumb -27.642 -318.338
rfemur -22.6511 -8.76126 -13.5415
rtibia 77.3024
rfoot -11.9503 2.85644
rtoes -7.81065
lfemur -25.8815 17.5063 -7.27344
ltibia 99.4358
lfoot 16.2512 -54.489
ltoes 0.431216
203
root 6.64815 1.97233 1.86878 241.247 -59.5921 18.7175
lowerback 12.2333 0.263916 4.79814
upperback 9.1042 0.498678 2.69933
thorax 2.74549 0.280305 0.071247
lowerneck -12.3623 -5.86982 -6.9594
upperneck 35.464 -14.3756 14.4577
head 16.5844 -5.77467 4.80112
rclavicle -2.3059e-014 7.41467e-014
rhumerus 17.1041 3.5341 -76.3131
rradius 76.1034
rwrist 29.3575
rhand -49.5978 -39.0925
rfingers 7.12502
rthumb -22.2031 -67.8373
lclavicle -2.3059e-014 7.41467e-014
lhumerus 32.7703 -15.658 44.6296
lradius 63.8367
lwrist -21.2818
lhand -55.2738 -346.327
lfingers 7.12502
lthumb -27.642 -318.338
rfemur -22.6511 -8.76126 -13.5415
rtibia 77.3024
rfoot -11.9503 2.85644
rtoes -7.81065
lfemur -25.8815 17.5063 -7.27344
ltibia 99.4358
lfoot 16.2512 -54.489
ltoes 0.431216
204
root 6.64815 1.97233 1.86878 241.247 -59.5921 18.7175
lowerback 12.2333 0.263916 4.79814
upperback 9.1042 0.498678 2.69933
thorax 2.74549 0.280305 0.071247
lowerneck -12.3623 -5.86982 -6.9594
upperneck 35.464 -14.3756 14.4577
head 16.5844 -5.77467 4.80112
rclavicle -2.3059e-014 7.41467e-014
rhumerus 17.1041 3.5341 -76.3131
rradius 76.1034
rwrist 29.3575
rhand -49.5978 -39.0925
rfingers 7.12502
rthumb -22.2031 -67.8373
lclavicle -2.3059e-014 7.41467e-014
lhumerus 32.7703 -15.658 44.6296
lradius 63.8367
lwrist -21.2818
lhand -55.2738 -346.327
lfingers 7.12502
lthumb -27.642 -318.338
rfemur -22.6511 -8.76126 -13.5415
rtibia 77.3024
rfoot -11.9503 2.85644
rtoes -7.81065
lfemur -25.8815 17.5063 -7.27344
ltibia 99.4358
lfoot 16.2512 -54.489
ltoes 0.431216
205
root 6.64815 1.97233 1.86878 241.247 -59.5921 18.7175
lowerback 12.2333 0.263916 4.79814
upperback 9.1042 0.498678 2.69933
thorax 2.74549 0.280305 0.071247
lowerneck -12.3623 -5.86982 -6.9594
upperneck 35.464 -14.3756 14.4577
head 16.5844 -5.77467 4.80112
rclavicle -2.3059e-014 7.41467e-014
rhumerus 17.1041 3.5341 -76.3131
rradius 76.1034
rwrist 29.3575
rhand -49.5978 -39.0925
rfingers 7.12502
rthumb -22.2031 -67.8373
lclavicle -2.3059e-014 7.41467e-014
lhumerus 32.7703 -15.658 44.6296
lradius 63.8367
lwrist -21.2818
lhand -55.2738 -346.327
lfingers 7.12502
lthumb -27.642 -318.338
rfemur -22.6511 -8.76126 -13.5415
rtibia 77.3024
rfoot -11.9503 2.85644
rtoes -7.81065
lfemur -25.8815 17.5063 -7.27344
ltibia 99.4358
lfoot 16.2512 -54.489
ltoes 0.431216
206
root 6.64815 1.97233 1.86878 241.247 -59.5921 18.7175
lowerback 12.2333 0.263916 4.79814
upperback 9.1042 0.498678 2.69933
thorax 2.74549 0.280305 0.071247
lowerneck -12.3623 -5.86982 -6.9594
upperneck 35.464 -14.3756 14.4577
head 16.5844 -5.77467 4.80112
rclavicle -2.3059e-014 7.41467e-014
rhumerus 17.1041 3.5341 -76.3131
rradius 76.1034
rwrist 29.3575
rhand -49.5978 -39.0925
rfingers 7.12502
rthumb -22.2031 -67.8373
lclavicle -2.3059e-014 7.41467e-014
lhumerus 32.7703 -15.658 44.6296
lradius 63.8367
lwrist -21.2818
lhand -55.2738 -346.327
lfingers 7.12502
lthumb -27.642 -318.338
rfemur -22.6511 -8.76126 -13.5415
rtibia 77.3024
rfoot -11.9503 2.85644
rtoes -7.81065
lfemur -25.8815 17.5063 -7.27344
ltibia 99.4358
lfoot 16.2512 -54.489
ltoes 0.431216
